<?xml version="1.0" encoding="UTF-8" standalone="no"?>
<!DOCTYPE svg PUBLIC "-//W3C//DTD SVG 1.1//EN" "http://www.w3.org/Graphics/SVG/1.1/DTD/svg11.dtd">
<svg width="100%" height="100%" viewBox="0 0 576 512" version="1.1" xmlns="http://www.w3.org/2000/svg" xmlns:xlink="http://www.w3.org/1999/xlink" xml:space="preserve" xmlns:serif="http://www.serif.com/" style="fill-rule:evenodd;clip-rule:evenodd;stroke-linejoin:round;stroke-miterlimit:2;">
    <path d="M123.6,34.5C190,84.6 261.5,186 287.8,240.5C314,186 385.5,84.5 452,34.5C500,-1.6 577.6,-29.6 577.6,59.4C577.6,77.2 567.5,208.6 561.5,229.9C540.8,304.1 465.4,323 398.4,311.5C515.6,331.5 545.4,397.8 481,464.1C358.7,590 305.2,432.5 291.5,392.1C289,384.6 287.8,381.2 287.8,384.2C287.8,381.1 286.6,384.6 284.1,392.1C270.4,432.5 216.9,590 94.6,464.1C30.2,397.8 60,331.5 177.2,311.5C110.2,322.9 34.8,304 14.1,229.8C8.1,208.5 -2,77.1 -2,59.3C-2,-29.6 75.7,-1.7 123.6,34.4L123.6,34.5Z" style="fill:white;fill-rule:nonzero;stroke:white;stroke-width:1px;"/>
</svg>
