<?xml version="1.0" encoding="UTF-8" standalone="no"?>
<!DOCTYPE svg PUBLIC "-//W3C//DTD SVG 1.1//EN" "http://www.w3.org/Graphics/SVG/1.1/DTD/svg11.dtd">
<svg width="100%" height="100%" viewBox="0 0 512 512" version="1.1" xmlns="http://www.w3.org/2000/svg" xmlns:xlink="http://www.w3.org/1999/xlink" xml:space="preserve" xmlns:serif="http://www.serif.com/" style="fill-rule:evenodd;clip-rule:evenodd;stroke-linejoin:round;stroke-miterlimit:2;">
    <path d="M64,112C55.2,112 48,119.2 48,128L48,150.1L220.5,291.7C241.2,308.7 270.9,308.7 291.6,291.7L464,150.1L464,128C464,119.2 456.8,112 448,112L64,112ZM48,212.2L48,384C48,392.8 55.2,400 64,400L448,400C456.8,400 464,392.8 464,384L464,212.2L322,328.8C283.6,360.3 228.3,360.3 190,328.8L48,212.2ZM0,128C0,92.7 28.7,64 64,64L448,64C483.3,64 512,92.7 512,128L512,384C512,419.3 483.3,448 448,448L64,448C28.7,448 0,419.3 0,384L0,128Z" style="fill:white;fill-rule:nonzero;"/>
</svg>
