<?xml version="1.0" standalone="no"?>
<!DOCTYPE svg PUBLIC "-//W3C//DTD SVG 1.1//EN" "http://www.w3.org/Graphics/SVG/1.1/DTD/svg11.dtd">
<svg width="100%" height="100%" viewBox="0 0 400 400" version="1.1" xmlns="http://www.w3.org/2000/svg" xmlns:xlink="http://www.w3.org/1999/xlink" xml:space="preserve" style="fill-rule:evenodd;clip-rule:evenodd;stroke-linejoin:round;stroke-miterlimit:1.41421;">
    <g transform="matrix(1.08501,0,0,1.08501,-72.7416,-12.4993)">
        <g id="Outer Logo">
            <g>
                <g id="Tear Fills">
                    <path d="M108.524,172.756C103.075,196.614 99.197,221.385 103.525,245.912C105.513,257.174 107.999,267.638 107.999,279.17C107.999,282.633 108.679,286.793 109.673,289.789C114.188,303.385 109.322,310.751 126.375,310.751C128.293,310.751 132.762,311.593 134.446,310.751C143.565,306.192 143.426,291.603 147.792,282.871C148.644,281.169 148.034,276.481 149.19,275.325C154.724,269.791 163.391,274.864 170.294,271.413C184.96,264.08 185.666,254.525 185.666,237.071C185.666,232.356 184.564,225.377 183.15,221.139C180.761,213.983 187.131,199.394 180.354,194.871C161.899,182.552 144.113,178.659 121.666,178.659C118.244,178.659 110.307,174.603 107.726,175.866C103.428,177.97 102.168,187.283 102.168,191.481" style="fill:white;stroke-width:2.76px;stroke:white;"/>
                    <path d="M287.83,212.169C287.83,241.686 280.52,291.097 289.508,318.059C293.359,329.615 286.997,341.034 295.901,349.571C299.12,352.657 303.64,352.087 308.163,352.087C310.312,352.087 319.05,353.439 320.46,352.087C324.895,347.835 330.258,329.713 332.477,323.054C333.784,319.135 332.492,313.479 333.316,309.359C334.246,304.708 332.217,291.244 333.875,289.585C336.857,286.603 356.804,292.908 360.882,286.792C363.443,282.951 367.568,278.474 369.547,272.538C373.65,260.229 368.799,245.519 370.945,232.572C372.543,222.931 377.388,208.292 374.018,198.195C372.45,193.497 370.498,186.428 367.904,183.834C363.735,179.665 342.742,189.995 337.752,191.66C331.724,193.672 323.59,193.172 317.353,194.732C310.885,196.351 304.223,202.399 298.069,205.914C296.076,207.052 290.574,207.876 289.124,209.266C287.68,210.651 288.565,219.612 288.565,222.333" style="fill:white;stroke-width:2.76px;stroke:white;"/>
                    <g transform="matrix(0.921652,0,0,0.921652,20.9598,4.14678)">
                        <path d="M109.161,121.244C123.834,109.518 136.727,104.264 153.005,96.125C155.657,94.799 165.069,85.478 169.288,89.697C175.691,96.1 165.605,127.189 162.581,133.226C161.174,136.034 163.346,141.057 162.581,144.128C159.346,157.105 161.445,175.651 165.097,186.608C165.764,188.608 169.304,202.421 166.775,204.18C164.147,206.007 155.258,203.613 152.555,203.344C141.58,202.25 136.554,200.104 127.157,193.84C121.935,190.358 98.286,181.214 91.382,178.467C85.265,176.034 79.929,164.778 76.047,160.896C70.962,155.81 78.823,150.582 81.077,146.082C85.487,137.28 103.336,120.37 111.191,120.37" style="fill:white;stroke-width:3px;stroke:white;"/>
                    </g>
                    <g transform="matrix(0.921652,0,0,0.921652,20.9598,4.14678)">
                        <path d="M329.427,131.517C330.452,118.727 330.24,116.26 325.757,106.958C324.364,104.067 314.77,94.781 317.966,91.585C319.558,89.993 339.379,96.995 343.087,98.852C344.681,99.65 347.906,98.362 349.236,99.691C357.912,108.367 374.866,109.517 384.693,118.416C390.673,123.831 394.931,131.855 402.02,136.582C409.545,141.598 423.082,154.186 417.638,165.055C413.365,173.585 400.501,170.828 393.044,174.556C388.305,176.925 379.949,178.722 374.879,182.102C363.863,189.446 352.499,198.044 341.969,203.309C339.048,204.769 327.964,203.213 326.91,201.632C315.634,184.718 333.618,168.885 333.618,151.605C333.618,147.644 335.446,131.272 331.45,131.272" style="fill:white;stroke-width:3px;stroke:white;"/>
                    </g>
                    <g transform="matrix(0.921652,0,0,0.921652,20.9598,11.52)">
                        <path d="M162.323,127.364C165.325,117.409 168.554,107.568 172.037,98.858C173.853,94.32 179.75,92.085 182.936,88.795C197.54,73.72 216.84,72.372 236.318,65.879C250.249,61.236 270.226,58.426 283.551,66.439C288.335,69.316 291.833,74.707 295.568,78.456C300.44,83.346 309.725,88.883 312.895,95.223C322.307,114.049 334.278,134.91 328.544,157.826C327.557,161.77 329.824,166.832 328.544,170.682C324.906,181.624 321.883,191.322 314.079,199.156C308.117,205.141 285.138,204.911 276.07,206.423C258.287,209.388 239.042,209.495 220.455,209.495C211.921,209.495 200.528,209.917 193.203,206.178C185.22,202.102 179.545,194.742 172.801,188.851C161.324,178.824 155.599,135.406 160.784,119.852C161.793,116.822 165.534,111.246 165.534,108.953" style="fill:white;stroke-width:8px;stroke:white;"/>
                    </g>
                </g>
                <g>
                    <g transform="matrix(1.16985,0,0,1.16985,74.3779,35.254)">
                        <circle cx="148.501" cy="96.734" r="17.255" style="fill:black;"/>
                    </g>
                    <g transform="matrix(1.16985,0,0,1.16985,74.3779,35.254)">
                        <path d="M294.908,90.46C294.342,89.704 280.739,71.74 256.025,53.767C223.183,29.881 186.003,17.256 148.501,17.256C111,17.256 73.818,29.881 40.976,53.766C16.261,71.74 2.658,89.704 2.092,90.46C-1.031,94.623 -0.616,100.448 3.064,104.129C3.704,104.77 8.56,109.538 17.256,116.013L17.256,220.136C17.256,235.129 29.452,247.325 44.445,247.325L45.491,247.325C60.484,247.325 72.681,235.129 72.681,220.136L72.681,212.085C74.696,212.562 76.796,212.815 78.955,212.815L80.001,212.815C94.994,212.815 107.191,200.618 107.191,185.625L107.191,155.122C119.939,157.52 133.727,158.958 148.5,158.958C156.738,158.958 164.67,158.51 172.288,157.699L172.288,252.554C172.288,267.547 184.485,279.743 199.478,279.743L200.524,279.743C215.517,279.743 227.713,267.547 227.713,252.554L227.713,227.247C229.729,227.725 231.829,227.977 233.988,227.977L235.034,227.977C250.026,227.977 262.224,215.781 262.224,200.788L262.224,127.692C281.929,115.927 292.947,105.117 293.935,104.128C297.616,100.448 298.031,94.623 294.908,90.46ZM207.064,96.734C207.064,123.158 188.746,137.019 152.612,137.983C151.248,138.01 149.885,138.042 148.501,138.042C147.112,138.042 145.745,138.011 144.374,137.983C108.251,137.015 89.937,123.154 89.937,96.734C89.937,64.442 116.208,38.17 148.5,38.17C180.792,38.17 207.064,64.442 207.064,96.734ZM81.739,53.693C73.707,66.107 69.022,80.88 69.022,96.734C69.022,106.951 70.971,116.032 74.711,123.897C51.11,114.539 34.138,102.731 25.171,95.618C34.549,85.463 54.03,66.959 81.739,53.693ZM86.276,185.625C86.276,189.025 83.402,191.899 80.002,191.899L78.956,191.899C75.556,191.899 72.682,189.025 72.682,185.625C72.682,179.85 67.999,175.167 62.224,175.167C56.449,175.167 51.766,179.85 51.766,185.625L51.766,220.136C51.766,223.536 48.893,226.411 45.492,226.411L44.446,226.411C41.046,226.411 38.172,223.537 38.172,220.136L38.172,129.68C50.996,137.025 67.139,144.539 86.277,150.12L86.277,185.625L86.276,185.625ZM241.31,200.789C241.31,204.189 238.436,207.063 235.036,207.063L233.99,207.063C230.589,207.063 227.715,204.189 227.715,200.789C227.715,195.014 223.033,190.331 217.258,190.331C211.483,190.331 206.8,195.014 206.8,200.789L206.8,252.555C206.8,255.955 203.926,258.829 200.526,258.829L199.48,258.829C196.079,258.829 193.206,255.955 193.206,252.555L193.206,154.456C211.56,150.702 227.671,144.974 241.311,138.7L241.311,200.789L241.31,200.789ZM222.246,123.987C226.014,116.101 227.979,106.991 227.979,96.734C227.979,80.821 223.26,65.996 215.173,53.552C224.709,58.12 234.049,63.696 243.166,70.277C256.284,79.746 266.018,89.315 271.848,95.641C262.898,102.78 245.933,114.627 222.246,123.987Z" style="fill:black;fill-rule:nonzero;stroke-width:7.88px;stroke:white;"/>
                    </g>
                </g>
            </g>
        </g>
    </g>
</svg>
