<?xml version="1.0" encoding="UTF-8" standalone="no"?>
<!DOCTYPE svg PUBLIC "-//W3C//DTD SVG 1.1//EN" "http://www.w3.org/Graphics/SVG/1.1/DTD/svg11.dtd">
<svg width="100%" height="100%" viewBox="0 0 384 512" version="1.1" xmlns="http://www.w3.org/2000/svg" xmlns:xlink="http://www.w3.org/1999/xlink" xml:space="preserve" xmlns:serif="http://www.serif.com/" style="fill-rule:evenodd;clip-rule:evenodd;stroke-linejoin:round;stroke-miterlimit:2;">
    <path d="M215.7,499.2C267,435 384,279.4 384,192C384,86 298,0 192,0C86,0 0,86 0,192C0,279.4 117,435 168.3,499.2C180.6,514.5 203.4,514.5 215.7,499.2ZM192,128C227.109,128 256,156.891 256,192C256,227.109 227.109,256 192,256C156.891,256 128,227.109 128,192C128,156.891 156.891,128 192,128Z" style="fill:white;fill-rule:nonzero;"/>
</svg>
