<?xml version="1.0" encoding="UTF-8" standalone="no"?>
<!DOCTYPE svg PUBLIC "-//W3C//DTD SVG 1.1//EN" "http://www.w3.org/Graphics/SVG/1.1/DTD/svg11.dtd">
<svg width="100%" height="100%" viewBox="0 0 448 512" version="1.1" xmlns="http://www.w3.org/2000/svg" xmlns:xlink="http://www.w3.org/1999/xlink" xml:space="preserve" xmlns:serif="http://www.serif.com/" style="fill-rule:evenodd;clip-rule:evenodd;stroke-linejoin:round;stroke-miterlimit:2;">
    <path d="M0,64C0,46.3 14.3,32 32,32C261.8,32 448,218.2 448,448C448,465.7 433.7,480 416,480C398.3,480 384,465.7 384,448C384,253.6 226.4,96 32,96C14.3,96 0,81.7 0,64ZM0,416C-0,380.891 28.891,352 64,352C99.109,352 128,380.891 128,416C128,451.109 99.109,480 64,480C28.891,480 0,451.109 0,416ZM32,160C191.1,160 320,288.9 320,448C320,465.7 305.7,480 288,480C270.3,480 256,465.7 256,448C256,324.3 155.7,224 32,224C14.3,224 0,209.7 0,192C0,174.3 14.3,160 32,160Z" style="fill:white;fill-rule:nonzero;"/>
</svg>
