<?xml version="1.0" encoding="UTF-8" standalone="no"?>
<!DOCTYPE svg PUBLIC "-//W3C//DTD SVG 1.1//EN" "http://www.w3.org/Graphics/SVG/1.1/DTD/svg11.dtd">
<svg width="100%" height="100%" viewBox="0 0 165 179" version="1.1" xmlns="http://www.w3.org/2000/svg" xmlns:xlink="http://www.w3.org/1999/xlink" xml:space="preserve" xmlns:serif="http://www.serif.com/" style="fill-rule:evenodd;clip-rule:evenodd;stroke-linejoin:round;stroke-miterlimit:2;">
    <path id="path2995" d="M130.82,177.54C128.161,176.782 125.863,176.012 125.714,175.83C121.036,170.108 118.155,164.24 118.155,160.435C118.155,157.731 118.689,155.795 119.573,155.297C121.107,154.432 123.192,149.598 129.405,132.497C137.591,109.964 142.093,96.467 141.75,95.48C141.556,94.921 138.53,93.86 135.026,93.124C127.969,91.641 127.152,91.408 112.155,86.613C97.041,81.784 93.062,81.362 88.231,84.077C85.119,85.826 84.351,86.813 84.485,88.889C84.625,91.049 84.225,91.5 82.168,91.5C80.523,91.5 79.558,90.859 79.317,89.607C79.025,88.089 79.388,87.828 81.152,88.289C82.908,88.749 83.257,88.503 82.883,87.072C82.595,85.971 83.322,84.597 84.768,83.512C90.591,79.139 90.667,79.064 89.308,79.032C88.568,79.014 86.66,79.928 85.068,81.062L82.173,83.123L79.799,80.562C78.493,79.153 76.801,78.014 76.04,78.032C75.1,78.053 75.28,78.537 76.6,79.536C78.046,80.629 78.256,81.298 77.418,82.137C75.66,83.894 73.377,82.439 71.432,78.322C69.8,74.867 68.714,74.175 58.154,69.861C51.829,67.276 45.827,65.126 44.816,65.081C43.805,65.036 40.201,63.715 36.807,62.144C27.649,57.905 25.709,57.397 26.494,59.444C27.095,61.01 27.758,64.679 31.836,89C34.836,106.896 39.483,122.849 42.181,124.517C42.716,124.848 43.154,128.526 43.154,132.691C43.154,145.299 38.128,150.127 23.574,151.501C15.002,152.31 10.793,150.86 5.579,145.299C1.098,140.52 0.173,138.201 0.015,131.347C-0.101,126.348 0.203,125.53 3.415,122.179C6.769,118.683 6.975,118.056 7.592,109.5C7.949,104.55 8.643,98.475 9.134,96C9.625,93.525 10.492,88.575 11.06,85C11.628,81.425 12.82,74.9 13.709,70.5C14.598,66.1 15.557,61.307 15.839,59.849C16.197,58 15.717,56.563 14.253,55.099C13.099,53.944 12.154,52.189 12.154,51.199C12.154,50.209 11.729,48.972 11.208,48.449C10.613,47.852 10.989,46.573 12.222,44.999L14.182,42.499L16.078,44.749C18.278,47.359 19.976,47.629 20.793,45.499C21.624,43.335 25.895,43.608 26.614,45.872C27.251,47.88 36.638,52.177 48.654,55.963C52.504,57.176 56.435,58.58 57.39,59.084C58.346,59.587 60.007,59.999 61.082,59.999C62.157,59.999 63.277,60.387 63.57,60.862C63.864,61.336 66.253,62.307 68.879,63.018C71.506,63.729 74.845,64.902 76.299,65.626C78.85,66.895 78.964,66.827 79.527,63.72C80.075,60.694 80.253,51.343 80.284,23.956C80.291,17.608 79.984,11.167 79.601,9.644C79.129,7.76 79.498,5.776 80.758,3.437C82.536,0.134 82.835,-0.001 88.347,-0.001C95.95,-0.001 97.197,1.901 94.096,8.761C91.636,14.2 89.947,31.864 92.008,30.59C92.639,30.2 93.155,29.126 93.155,28.204C93.155,25.672 98.217,16.189 99.917,15.536C103.051,14.334 103.999,16.7 102.415,21.764C99.368,31.501 98.775,33.703 96.966,42C95.946,46.675 94.681,52.435 94.154,54.801C93.627,57.166 93.322,61.891 93.477,65.301C93.714,70.537 94.026,71.453 95.485,71.199C97.203,70.9 111.746,75.515 113.654,76.965C114.631,77.707 119.841,79.346 131.386,82.543C134.538,83.416 137.382,84.559 137.705,85.081C138.028,85.604 138.74,85.756 139.287,85.418C139.833,85.08 141.088,85.534 142.074,86.427C143.677,87.878 144.002,87.888 145.133,86.525C147.097,84.159 149.732,84.709 152.565,88.076C155.578,91.657 155.788,93.649 153.498,96.919C152.007,99.049 151.967,100.381 153.1,110.303C153.792,116.364 154.925,123.387 155.619,125.911C156.312,128.435 156.955,132.075 157.048,134C157.313,139.484 160.328,148.332 162.555,150.165C164.149,151.475 164.652,153.282 164.92,158.665C165.392,168.15 163.508,171.575 155.661,175.493C148.642,178.998 138.78,179.811 130.819,177.542L130.82,177.54ZM146.919,173.552C157.222,172.686 161.954,167.81 160.687,159.363L160.031,154.991L157.57,157.916C152.786,163.602 143.574,166.417 135.457,164.674C129.835,163.467 127.302,162.151 125.598,159.551C123.433,156.246 121.788,157.346 122.484,161.634C123.631,168.705 131.313,175.188 137.65,174.435C139.303,174.239 143.474,173.841 146.919,173.552L146.919,173.552ZM140.155,158.057C140.155,155.889 139.774,153.88 139.308,153.592C138.842,153.304 135.64,153.864 132.191,154.837L125.922,156.605L131.788,159.282C139.61,162.851 140.155,162.771 140.155,158.057L140.155,158.057ZM144.839,151.949C144.44,144.214 143.183,143.074 143.055,150.331C142.835,162.778 142.911,163.422 144.213,160.176C144.725,158.899 145.007,155.197 144.839,151.949L144.839,151.949ZM153.383,155.958C153.024,152.87 152.7,152.644 149.701,153.397C147.582,153.929 147.155,154.621 147.155,157.52L147.155,161.003L150.405,159.649C152.923,158.599 153.594,157.768 153.383,155.958L153.383,155.958ZM157.679,152.037C157.399,151.584 156.961,149.478 156.704,147.356C156.106,142.404 152.884,127.935 152.472,128.348C152.148,128.672 154.763,147.71 155.692,151.789C155.979,153.049 156.658,153.805 157.201,153.47C157.743,153.134 157.959,152.489 157.679,152.037ZM128.646,147.829C131.351,142.443 138.323,122.703 138.015,121.302C137.917,120.859 138.19,119.69 138.62,118.704C139.05,117.718 139.169,116.678 138.885,116.393C138.6,116.109 137.597,118.041 136.655,120.687C135.714,123.332 134.57,126.397 134.113,127.497C132.868,130.497 125.155,152.088 125.155,152.575C125.155,154.006 126.379,152.342 128.646,147.829L128.646,147.829ZM139.87,149.586C139.988,149.485 140.323,143.124 140.615,135.45C141.012,124.989 140.887,122.374 140.115,124.998C139.549,126.923 138.672,129.398 138.166,130.498C137.095,132.828 131.155,149.915 131.155,150.666C131.155,151.102 139.274,150.096 139.87,149.586L139.87,149.586ZM152.14,148.746C152.099,145.931 149.124,126.628 148.66,126.164C147.34,124.844 146.913,127.782 146.994,137.623C147.056,145.188 147.46,148.571 148.37,149.148C150.287,150.364 152.161,150.164 152.14,148.746L152.14,148.746ZM29.32,145.876C34.114,144.682 38.756,139.353 39.659,134.006C40.044,131.724 40.137,129.635 39.866,129.363C39.594,129.091 37.862,130.165 36.016,131.749C28.438,138.255 19.54,138.709 11.161,133.016C9.786,132.082 7.929,131.055 7.035,130.734C5.888,130.322 5.542,129.316 5.863,127.321C6.217,125.121 6.082,124.825 5.255,125.992C3.613,128.31 3.968,135.178 5.911,138.66C10.565,147.002 16.924,148.961 29.32,145.875L29.32,145.876ZM144.52,140.496C144.203,139.671 143.768,138.996 143.551,138.996C143.335,138.996 143.158,139.671 143.158,140.496C143.158,141.321 143.594,141.996 144.127,141.996C144.66,141.996 144.837,141.321 144.52,140.496ZM145.69,124.742C146.016,119.656 146.467,110.771 146.69,104.996C146.914,99.221 147.274,93.258 147.49,91.746C147.961,88.451 146.608,88.045 145.824,91.246C145.52,92.483 144.959,98.534 144.576,104.692C144.078,112.708 143.494,116.037 142.519,116.411C141.771,116.698 141.194,117.735 141.237,118.714C141.284,119.762 141.524,119.981 141.821,119.246C143.129,116.002 143.64,118.848 143.434,128.244C143.154,140.988 144.813,138.415 145.69,124.742L145.69,124.742ZM24.16,126.329C24.16,122.662 23.976,119.85 23.751,120.079C23.039,120.804 22.307,130.214 22.852,131.635C23.848,134.23 24.16,132.963 24.16,126.329L24.16,126.329ZM31.432,130.996C34.511,128.566 34.101,124.986 30.743,124.986C27.781,124.986 26.159,126.826 26.159,130.186C26.159,133.531 27.868,133.79 31.431,130.987L31.432,130.996ZM20.967,129.236C20.873,127.724 20.437,126.001 19.997,125.407C19.109,124.208 13.439,124.724 12.601,126.081C11.581,127.732 14.175,130.856 16.909,131.27C18.422,131.499 19.992,131.754 20.398,131.837C20.805,131.919 21.06,130.749 20.967,129.236L20.967,129.236ZM10.16,127.045C10.16,126.528 9.71,125.826 9.16,125.486C8.61,125.146 8.16,125.57 8.16,126.427C8.16,127.285 8.61,127.986 9.16,127.986C9.71,127.986 10.16,127.563 10.16,127.045ZM35.811,121.301C34.957,118.653 33.957,114.778 33.589,112.69C33.221,110.602 32.698,109.115 32.428,109.385C31.736,110.077 34.066,122.943 35.301,125.25C37.107,128.624 37.411,126.263 35.811,121.301L35.811,121.301ZM152.081,123.231C151.602,121.169 151.192,117.906 151.171,115.981C151.146,113.803 150.826,112.963 150.323,113.756C149.392,115.223 151.056,126.981 152.195,126.981C152.611,126.981 152.56,125.293 152.081,123.231L152.081,123.231ZM19.761,121.721C20.166,121.311 18.847,120.981 16.83,120.981C14.813,120.981 13.163,121.379 13.163,121.864C13.163,122.907 18.694,122.784 19.761,121.717L19.761,121.721ZM31.804,122.293C30.661,121.15 27.163,120.923 27.163,121.992C27.163,122.538 28.363,122.986 29.83,122.986C31.296,122.986 32.185,122.674 31.804,122.293ZM11.163,118.368C11.163,117.543 10.713,117.146 10.163,117.486C9.613,117.826 9.163,118.779 9.163,119.604C9.163,120.429 9.613,120.826 10.163,120.486C10.713,120.146 11.163,119.193 11.163,118.368ZM19.932,118.999C21.582,118.981 20.41,113.811 18.498,112.678C17.371,112.01 17.408,111.598 18.713,110.292C20.313,108.692 20.245,100.885 18.49,84.985C17.93,79.904 17.82,79.713 17.044,82.48C16.583,84.127 15.932,89.302 15.598,93.98C15.265,98.658 14.619,106.078 14.162,110.468C13.706,114.859 13.57,118.835 13.861,119.305C14.151,119.775 15.35,119.901 16.526,119.586C17.701,119.27 19.234,119.006 19.932,118.999L19.932,118.999ZM30.603,115.869C30.51,112.185 27.978,96.751 27.059,94.271C26.195,91.938 27.577,90.071 28.57,92.23C29.518,94.288 28.168,82.278 26.126,70.486L24.222,59.486L24.725,72.486C25.002,79.636 25.186,90.498 25.134,96.624C25.081,102.75 25.346,110.478 25.721,113.797C26.358,119.422 26.548,119.778 28.533,119.042C29.92,118.528 30.642,117.421 30.603,115.869L30.603,115.869ZM26.163,88.989C26.163,88.439 26.361,87.989 26.604,87.989C26.846,87.989 27.323,88.439 27.663,88.989C28.003,89.539 27.804,89.989 27.222,89.989C26.639,89.989 26.163,89.539 26.163,88.989ZM23.767,116.26C23.435,115.928 23.198,116.519 23.242,117.573C23.29,118.738 23.527,118.975 23.846,118.177C24.135,117.455 24.099,116.593 23.767,116.26L23.767,116.26ZM31.639,102.74C31.254,100.403 30.518,97.815 30.003,96.99C29.272,95.817 29.168,95.925 29.529,97.49C29.782,98.59 30.274,101.178 30.622,103.24C30.97,105.303 31.499,106.99 31.797,106.99C32.095,106.99 32.024,105.078 31.639,102.74L31.639,102.74ZM11.826,102.74C11.549,102.053 11.322,102.615 11.322,103.99C11.322,105.365 11.549,105.928 11.826,105.24C12.104,104.553 12.104,103.428 11.826,102.74ZM12.853,94.24C12.602,93.278 12.396,94.065 12.396,95.99C12.396,97.915 12.602,98.703 12.853,97.74C13.105,96.778 13.105,95.203 12.853,94.24ZM22.812,91.515C21.717,88.661 21.94,54.555 23.072,51.654C23.919,49.485 23.897,48.913 22.976,49.219C22.314,49.44 21.407,50.941 20.96,52.555C19.348,58.377 20.58,92.99 22.398,92.99C22.936,92.99 23.122,92.327 22.81,91.515L22.812,91.515ZM13.768,87.261C13.436,86.929 13.199,87.519 13.243,88.574C13.291,89.739 13.528,89.976 13.847,89.178C14.136,88.456 14.1,87.593 13.768,87.261L13.768,87.261ZM128.168,88.081C127.343,87.614 125.543,86.957 124.168,86.621C122.084,86.112 122.167,86.251 124.668,87.455C127.873,88.999 130.676,89.5 128.168,88.081L128.168,88.081ZM112.618,83.135C112.095,82.665 107.618,81.06 102.668,79.569C97.718,78.078 92.768,76.5 91.668,76.062C89.112,75.044 81.588,75.476 81.918,76.622C82.055,77.1 82.292,77.864 82.445,78.321C82.597,78.777 83.888,78.619 85.314,77.97C87.435,77.003 89.395,77.175 96.103,78.913C100.611,80.082 105.732,81.666 107.484,82.433C111.132,84.03 114.057,84.431 112.618,83.135L112.618,83.135ZM79.167,75.149C79.167,73.85 67.268,68.351 54.954,63.958C37.586,57.763 38.945,59.117 57.835,66.828C64.342,69.485 71.467,72.613 73.667,73.78C78.097,76.13 79.167,76.397 79.167,75.15L79.167,75.149ZM78.367,69.79C77.725,69.149 76.868,68.956 76.462,69.361C76.057,69.767 76.374,70.5 77.167,70.99C79.034,72.145 79.878,71.301 78.367,69.79L78.367,69.79ZM85.82,52.587C85.476,43.184 85.188,31.328 85.181,26.24C85.172,19.923 84.801,16.99 84.013,16.99C83.165,16.99 83.01,21.173 83.431,32.74C83.804,43.013 83.552,52.142 82.708,58.99C81.996,64.765 81.583,69.785 81.791,70.146C81.999,70.507 83.132,70.551 84.308,70.243C86.419,69.691 86.439,69.465 85.82,52.587L85.82,52.587ZM90.457,67.99C90.169,66.89 89.761,65.99 89.551,65.99C89.34,65.99 89.167,66.89 89.167,67.99C89.167,69.09 89.575,69.99 90.074,69.99C90.572,69.99 90.745,69.09 90.457,67.99ZM73.167,68.504C73.167,67.979 67.993,65.691 64.08,64.485C60.347,63.335 62.806,65.276 67.5,67.184C71.954,68.995 73.167,69.278 73.167,68.504ZM90.167,60.431C90.167,59.639 89.717,58.99 89.167,58.99C88.617,58.99 88.167,59.917 88.167,61.049C88.167,62.182 88.617,62.83 89.167,62.49C89.717,62.15 90.167,61.224 90.167,60.431ZM55.355,61.307C54.633,61.018 53.77,61.054 53.438,61.386C53.106,61.718 53.697,61.955 54.751,61.911C55.916,61.863 56.153,61.626 55.355,61.307L55.355,61.307ZM40.167,58.99C39.342,58.457 38.217,58.021 37.667,58.021C37.117,58.021 37.342,58.457 38.167,58.99C38.992,59.523 40.117,59.96 40.667,59.96C41.217,59.96 40.992,59.523 40.167,58.99ZM34.767,57.257C33.862,56.352 25.88,53.944 25.394,54.43C25.037,54.787 32.9,57.766 34.584,57.911C35.088,57.955 35.17,57.66 34.767,57.257L34.767,57.257ZM40.167,55.99C39.342,55.457 37.992,55.046 37.167,55.076C36.178,55.112 36.348,55.424 37.667,55.99C40.416,57.172 41.995,57.172 40.167,55.99ZM94.586,40.99C96.1,35.254 98.168,25.595 98.168,24.261C98.168,20.45 96.514,24.98 93.412,37.287C89.034,54.662 88.99,54.893 89.852,56.288C90.275,56.973 91.367,54.265 92.392,49.989C93.381,45.865 94.368,41.815 94.586,40.99L94.586,40.99ZM16.875,49.269C15.136,47.53 14.661,48.505 15.801,51.476C16.252,52.651 16.742,52.816 17.508,52.05C18.274,51.285 18.092,50.486 16.875,49.269L16.875,49.269ZM89.753,38.595C89.42,36.819 89.115,31.231 89.075,26.178C89.036,21.124 88.578,16.99 88.059,16.99C87.498,16.99 87.293,21.158 87.555,27.24C87.798,32.877 88.049,39.29 88.113,41.49C88.21,44.827 88.405,45.186 89.294,43.657C89.88,42.65 90.087,40.371 89.754,38.595L89.753,38.595ZM87.167,13.99C88.38,13.206 88.237,13.018 86.417,13.005C85.18,12.997 84.167,13.44 84.167,13.99C84.167,15.243 85.228,15.243 87.167,13.99ZM85.152,4.681C85.16,4.236 84.717,4.15 84.167,4.49C83.617,4.83 83.174,5.869 83.183,6.799C83.196,8.256 83.332,8.283 84.167,6.99C84.7,6.165 85.143,5.126 85.152,4.681L85.152,4.681ZM90.772,4.261C90.439,3.928 90.203,4.519 90.246,5.573C90.294,6.738 90.531,6.975 90.851,6.177C91.14,5.455 91.104,4.593 90.772,4.261L90.772,4.261Z" style="fill:white;fill-rule:nonzero;"/>
</svg>
